<svg xmlns="http://www.w3.org/2000/svg" viewBox="0 0 1200 675" width="1200" height="675" role="img" aria-label="Screenshot placeholder">
  <rect width="1200" height="675" fill="#fafbf9"/>
  <rect x="0" y="0" width="260" height="675" fill="#f3f4f0"/>
  <g fill="#cfcec5">
    <rect x="40" y="60" width="150" height="16" rx="8"/>
    <rect x="40" y="110" width="180" height="12" rx="6"/>
    <rect x="40" y="146" width="140" height="12" rx="6"/>
    <rect x="40" y="182" width="165" height="12" rx="6"/>
  </g>
  <rect x="320" y="60" width="380" height="30" rx="8" fill="#181b19"/>
  <rect x="320" y="110" width="520" height="14" rx="7" fill="#5f5e5a" opacity="0.5"/>
  <rect x="320" y="170" width="820" height="420" rx="18" fill="#ffffff" stroke="#e2e1da" stroke-width="3"/>
  <polyline points="360,520 480,460 600,490 720,380 840,410 960,300 1100,330" fill="none" stroke="#2b8a60" stroke-width="6" stroke-linecap="round" stroke-linejoin="round"/>
  <g fill="#2b8a60">
    <circle cx="480" cy="460" r="9"/>
    <circle cx="720" cy="380" r="9"/>
    <circle cx="960" cy="300" r="9"/>
  </g>
  <text x="730" y="232" text-anchor="middle" font-family="'JetBrains Mono', ui-monospace, monospace" font-size="20" fill="#8b8d85">screenshot placeholder</text>
</svg>
